<svg width="20" height="20" viewBox="0 0 20 20" fill="none" xmlns="http://www.w3.org/2000/svg">
<path fill-rule="evenodd" clip-rule="evenodd" d="M10.75 2C10.75 1.58579 10.4142 1.25 10 1.25C9.58579 1.25 9.25 1.58579 9.25 2V2.88502C8.22194 2.98414 7.37586 3.28987 6.68953 3.75352C5.84568 4.3236 5.29629 5.09651 4.94015 5.89426C4.24969 7.44089 4.2499 9.17201 4.25 9.9721L4.25 10V10.0112V10.0224V10.0336V10.0448V10.0559V10.067V10.0781V10.0891V10.1002V10.1112V10.1221V10.1331V10.144V10.1549V10.1658V10.1766V10.1874V10.1982V10.209V10.2197V10.2304V10.2411V10.2518V10.2624V10.2731V10.2837V10.2942V10.3048V10.3153V10.3258V10.3362V10.3467V10.3571V10.3675V10.3779V10.3882V10.3985V10.4088V10.4191V10.4294V10.4396V10.4498V10.46V10.4701V10.4803V10.4904V10.5004V10.5105V10.5206V10.5306V10.5406V10.5505V10.5605V10.5704V10.5803V10.5902V10.6001V10.6099V10.6197V10.6295V10.6393V10.649V10.6587V10.6684V10.6781V10.6878V10.6974V10.707V10.7166V10.7262V10.7358V10.7453V10.7548V10.7643V10.7738V10.7832V10.7926V10.802V10.8114V10.8208V10.8301V10.8394V10.8487V10.858V10.8673V10.8765V10.8858V10.895V10.9041V10.9133V10.9224V10.9316V10.9407V10.9497V10.9588V10.9679V10.9769V10.9859V10.9949V11.0038V11.0128V11.0217V11.0306V11.0395V11.0484V11.0572V11.0661V11.0749V11.0837V11.0925V11.1012V11.11V11.1187V11.1274V11.1361V11.1448V11.1534V11.1621V11.1707V11.1793V11.1879V11.1965V11.205V11.2135V11.2221V11.2306V11.239V11.2475V11.2559V11.2644V11.2728V11.2812V11.2896V11.2979V11.3063V11.3146V11.3229V11.3312V11.3395V11.3478V11.3561V11.3643V11.3725V11.3807V11.3889V11.3971V11.4052V11.4134V11.4215V11.4296V11.4377V11.4458V11.4539V11.4619V11.47V11.478V11.486V11.494V11.502V11.51V11.5179V11.5259V11.5338V11.5417V11.5496V11.5575V11.5653V11.5732V11.581V11.5889V11.5967V11.6045V11.6123V11.62V11.6278V11.6356V11.6433V11.651V11.6587V11.6664V11.6741V11.6818V11.6894V11.6971V11.7047V11.7123V11.7199V11.7275V11.7351V11.7427V11.7503V11.7578V11.7654V11.7729V11.7804V11.7879V11.7954V11.8029V11.8103V11.8178V11.8252V11.8327V11.8401V11.8475V11.8549V11.8623V11.8697V11.8771V11.8844V11.8918V11.8991V11.9064V11.9138V11.9211V11.9284V11.9357V11.9429V11.9502V11.9575V11.9647V11.972V11.9792V11.9864V11.9936V12.0008V12.008V12.0152V12.0224V12.0296V12.0367V12.0439V12.051V12.0581V12.0653V12.0724V12.0795V12.0866V12.0937V12.1008V12.1078V12.1149V12.122V12.129V12.1361V12.1431V12.1501V12.1571V12.1642V12.1712V12.1782V12.1851V12.1921V12.1991V12.2061V12.213V12.22V12.2269V12.2339V12.2408V12.2478V12.2547V12.2616V12.2685V12.2754V12.2823V12.2892V12.2961V12.303V12.3099V12.3167V12.3236V12.3304V12.3373V12.3441V12.351V12.3578V12.3647V12.3715V12.3783V12.3851V12.3919V12.3987V12.4055V12.4123V12.4191V12.4259V12.4327V12.4395V12.4463V12.453V12.4598V12.4666V12.4733V12.4801V12.4868V12.4936V12.5003V12.5071V12.5138V12.5206V12.5273V12.534V12.5407V12.5475V12.5542V12.5609V12.5676V12.5743V12.581V12.5877V12.5944V12.6012V12.6079V12.6145V12.6212V12.6279V12.6346V12.6413V12.648V12.6547V12.6614V12.6681V12.6747V12.6814V12.6881V12.6948V12.7014V12.7081V12.7148V12.7215V12.7281V12.7348V12.7415V12.7481V12.7548V12.7615V12.7681V12.7748V12.7815V12.7881V12.7948V12.8015V12.8081V12.8148V12.8215V12.8281V12.8348V12.8415V12.8482V12.8548V12.8615V12.8682V12.8748V12.8815V12.8882V12.8949V12.9015V12.9082V12.9149V12.9216V12.9282V12.9349V12.9416V12.9483V12.955V12.9617V12.9684V12.9751V12.9818V12.9885V12.9952V13.0019V13.0086V13.0153V13.022V13.0287V13.0354V13.0421V13.0488V13.0556V13.0623V13.069V13.0758V13.0825V13.0892V13.096V13.1027V13.1095V13.1162V13.123V13.1298V13.1365V13.1433V13.1501V13.1568V13.1636V13.1704V13.1772V13.184V13.1908V13.1976V13.2044V13.2112V13.218V13.2249V13.2317V13.2385V13.2454V13.25H3C2.58579 13.25 2.25 13.5858 2.25 14C2.25 14.4142 2.58579 14.75 3 14.75H5H14.9878C14.9919 14.7501 14.9959 14.7501 15 14.7501C15.0041 14.7501 15.0081 14.7501 15.0122 14.75H17C17.4142 14.75 17.75 14.4142 17.75 14C17.75 13.5858 17.4142 13.25 17 13.25H15.75V12.2201V10.9298C15.5071 10.9759 15.2563 11 15 11C14.7437 11 14.4929 10.9759 14.25 10.9298V12.2201V13.25H5.75V13.2454V13.2385V13.2317V13.2249V13.218V13.2112V13.2044V13.1976V13.1908V13.184V13.1772V13.1704V13.1636V13.1568V13.1501V13.1433V13.1365V13.1298V13.123V13.1162V13.1095V13.1027V13.096V13.0892V13.0825V13.0758V13.069V13.0623V13.0556V13.0488V13.0421V13.0354V13.0287V13.022V13.0153V13.0086V13.0019V12.9952V12.9885V12.9818V12.9751V12.9684V12.9617V12.955V12.9483V12.9416V12.9349V12.9282V12.9216V12.9149V12.9082V12.9015V12.8949V12.8882V12.8815V12.8748V12.8682V12.8615V12.8548V12.8482V12.8415V12.8348V12.8281V12.8215V12.8148V12.8081V12.8015V12.7948V12.7881V12.7815V12.7748V12.7681V12.7615V12.7548V12.7481V12.7415V12.7348V12.7281V12.7215V12.7148V12.7081V12.7014V12.6948V12.6881V12.6814V12.6747V12.6681V12.6614V12.6547V12.648V12.6413V12.6346V12.6279V12.6212V12.6145V12.6079V12.6012V12.5944V12.5877V12.581V12.5743V12.5676V12.5609V12.5542V12.5475V12.5407V12.534V12.5273V12.5206V12.5138V12.5071V12.5003V12.4936V12.4868V12.4801V12.4733V12.4666V12.4598V12.453V12.4463V12.4395V12.4327V12.4259V12.4191V12.4123V12.4055V12.3987V12.3919V12.3851V12.3783V12.3715V12.3647V12.3578V12.351V12.3441V12.3373V12.3304V12.3236V12.3167V12.3099V12.303V12.2961V12.2892V12.2823V12.2754V12.2685V12.2616V12.2547V12.2478V12.2408V12.2339V12.2269V12.22V12.213V12.2061V12.1991V12.1921V12.1851V12.1782V12.1712V12.1642V12.1571V12.1501V12.1431V12.1361V12.129V12.122V12.1149V12.1078V12.1008V12.0937V12.0866V12.0795V12.0724V12.0653V12.0581V12.051V12.0439V12.0367V12.0296V12.0224V12.0152V12.008V12.0008V11.9936V11.9864V11.9792V11.972V11.9647V11.9575V11.9502V11.9429V11.9357V11.9284V11.9211V11.9138V11.9064V11.8991V11.8918V11.8844V11.8771V11.8697V11.8623V11.8549V11.8475V11.8401V11.8327V11.8252V11.8178V11.8103V11.8029V11.7954V11.7879V11.7804V11.7729V11.7654V11.7578V11.7503V11.7427V11.7351V11.7275V11.7199V11.7123V11.7047V11.6971V11.6894V11.6818V11.6741V11.6664V11.6587V11.651V11.6433V11.6356V11.6278V11.62V11.6123V11.6045V11.5967V11.5889V11.581V11.5732V11.5653V11.5575V11.5496V11.5417V11.5338V11.5259V11.5179V11.51V11.502V11.494V11.486V11.478V11.47V11.4619V11.4539V11.4458V11.4377V11.4296V11.4215V11.4134V11.4052V11.3971V11.3889V11.3807V11.3725V11.3643V11.3561V11.3478V11.3395V11.3312V11.3229V11.3146V11.3063V11.2979V11.2896V11.2812V11.2728V11.2644V11.2559V11.2475V11.239V11.2306V11.2221V11.2135V11.205V11.1965V11.1879V11.1793V11.1707V11.1621V11.1534V11.1448V11.1361V11.1274V11.1187V11.11V11.1012V11.0925V11.0837V11.0749V11.0661V11.0572V11.0484V11.0395V11.0306V11.0217V11.0128V11.0038V10.9949V10.9859V10.9769V10.9679V10.9588V10.9497V10.9407V10.9316V10.9224V10.9133V10.9041V10.895V10.8858V10.8765V10.8673V10.858V10.8487V10.8394V10.8301V10.8208V10.8114V10.802V10.7926V10.7832V10.7738V10.7643V10.7548V10.7453V10.7358V10.7262V10.7166V10.707V10.6974V10.6878V10.6781V10.6684V10.6587V10.649V10.6393V10.6295V10.6197V10.6099V10.6001V10.5902V10.5803V10.5704V10.5605V10.5505V10.5406V10.5306V10.5206V10.5105V10.5004V10.4904V10.4803V10.4701V10.46V10.4498V10.4396V10.4294V10.4191V10.4088V10.3985V10.3882V10.3779V10.3675V10.3571V10.3467V10.3362V10.3258V10.3153V10.3048V10.2942V10.2837V10.2731V10.2624V10.2518V10.2411V10.2304V10.2197V10.209V10.1982V10.1874V10.1766V10.1658V10.1549V10.144V10.1331V10.1221V10.1112V10.1002V10.0891V10.0781V10.067V10.0559V10.0448V10.0336V10.0224V10.0112V10C5.75 9.18716 5.75845 7.74088 6.30985 6.50574C6.57871 5.90349 6.96682 5.3764 7.52922 4.99648C8.087 4.61966 8.86893 4.35185 9.98838 4.35001C9.99225 4.35007 9.99612 4.3501 10 4.3501C10.7197 4.3501 11.3003 4.45979 11.7717 4.63772C12.0944 4.19754 12.5049 3.82578 12.9774 3.54829C12.3557 3.19959 11.6176 2.96877 10.75 2.88511V2ZM8.75 16C8.75 16.6904 9.30964 17.25 10 17.25C10.6904 17.25 11.25 16.6904 11.25 16H12.75C12.75 17.5188 11.5188 18.75 10 18.75C8.48122 18.75 7.25 17.5188 7.25 16H8.75Z" fill="#676E7E"/>
<circle cx="15" cy="7" r="3" fill="#F25D5D"/>
</svg>
