<svg width="20" height="20" viewBox="0 0 20 20" fill="none" xmlns="http://www.w3.org/2000/svg">
<path fill-rule="evenodd" clip-rule="evenodd" d="M5.78979 5.21711C5.78979 3.91512 6.85765 2.84717 8.19039 2.84717C9.52313 2.84717 10.591 3.91512 10.591 5.21711C10.591 6.5191 9.52313 7.58706 8.19039 7.58706C6.85765 7.58706 5.78979 6.5191 5.78979 5.21711ZM8.19039 1.34717C6.04308 1.34717 4.28979 3.07291 4.28979 5.21711C4.28979 7.36132 6.04308 9.08706 8.19039 9.08706C10.3377 9.08706 12.091 7.36132 12.091 5.21711C12.091 3.07291 10.3377 1.34717 8.19039 1.34717ZM2.75 17.0134C2.75 14.031 5.19346 11.6008 8.22311 11.6008C11.2528 11.6008 13.6962 14.031 13.6962 17.0134C13.6962 17.4276 14.032 17.7634 14.4462 17.7634C14.8604 17.7634 15.1962 17.4276 15.1962 17.0134C15.1962 13.1888 12.0673 10.1008 8.22311 10.1008C4.3789 10.1008 1.25 13.1888 1.25 17.0134C1.25 17.4276 1.58579 17.7634 2 17.7634C2.41421 17.7634 2.75 17.4276 2.75 17.0134Z" fill="#676E7E"/>
<path d="M13 8.4L14.7143 10L19 6" stroke="#676E7E" stroke-width="1.5"/>
</svg>
