<svg width="20" height="20" viewBox="0 0 20 20" fill="none" xmlns="http://www.w3.org/2000/svg">
<path fill-rule="evenodd" clip-rule="evenodd" d="M2.74994 2C2.74994 1.58579 2.41415 1.25 1.99994 1.25C1.58573 1.25 1.24994 1.58579 1.24994 2V16.0015C1.24994 17.5203 2.48116 18.7515 3.99994 18.7515H18.0019C18.4161 18.7515 18.7519 18.4157 18.7519 18.0015C18.7519 17.5873 18.4161 17.2515 18.0019 17.2515H3.99994C3.30958 17.2515 2.74994 16.6918 2.74994 16.0015V2ZM17.5909 8.17787C17.8838 7.88498 17.8838 7.41011 17.5909 7.11721C17.298 6.82431 16.8231 6.8243 16.5302 7.11719L13.0015 10.6458C12.9039 10.7434 12.7456 10.7434 12.648 10.6458L11.2383 9.23616C10.5549 8.55277 9.44685 8.55277 8.76344 9.23617L5.23472 12.7648C4.94182 13.0577 4.94181 13.5325 5.2347 13.8254C5.52759 14.1183 6.00247 14.1183 6.29536 13.8255L9.82408 10.2968C9.92171 10.1992 10.08 10.1992 10.1776 10.2968L11.5873 11.7065C12.2707 12.3899 13.3787 12.3899 14.0621 11.7065L17.5909 8.17787Z" fill="#676E7E"/>
</svg>
