<svg width="18" height="12" viewBox="0 0 18 12" fill="none" xmlns="http://www.w3.org/2000/svg">
<path fill-rule="evenodd" clip-rule="evenodd" d="M0.25 1C0.25 0.585786 0.585786 0.25 1 0.25H8C8.41421 0.25 8.75 0.585786 8.75 1C8.75 1.41421 8.41421 1.75 8 1.75H1C0.585786 1.75 0.25 1.41421 0.25 1ZM9.25 11C9.25 10.5858 9.58579 10.25 10 10.25H17C17.4142 10.25 17.75 10.5858 17.75 11C17.75 11.4142 17.4142 11.75 17 11.75H10C9.58579 11.75 9.25 11.4142 9.25 11ZM1 5.25C0.585786 5.25 0.25 5.58579 0.25 6C0.25 6.41421 0.585786 6.75 1 6.75H17C17.4142 6.75 17.75 6.41421 17.75 6C17.75 5.58579 17.4142 5.25 17 5.25H1Z" fill="#676E7E"/>
</svg>
