<svg width="20" height="20" viewBox="0 0 20 20" fill="none" xmlns="http://www.w3.org/2000/svg">
<path fill-rule="evenodd" clip-rule="evenodd" d="M14.254 1.54549C14.0104 1.2105 13.5413 1.13645 13.2063 1.38008C12.8714 1.62371 12.7973 2.09277 13.0409 2.42776C13.6603 3.27942 14.0287 4.33833 14.0287 5.48988C14.0287 6.49094 13.6263 7.79087 12.9054 8.53655C12.6337 8.81752 12.6255 9.25605 12.8756 9.54652C12.9361 9.63758 13.0176 9.71677 13.118 9.7762C14.5182 10.605 15.7243 11.7706 16.4647 13.3228C16.643 13.6967 17.0907 13.8552 17.4645 13.6769C17.8384 13.4985 17.9969 13.0509 17.8186 12.677C17.0474 11.0603 15.8675 9.81673 14.5255 8.89573C15.2091 7.84979 15.5287 6.52883 15.5287 5.48988C15.5287 4.01396 15.0555 2.64752 14.254 1.54549ZM5.78979 5.217C5.78979 3.91501 6.85765 2.84706 8.19039 2.84706C9.52313 2.84706 10.591 3.91501 10.591 5.217C10.591 6.51899 9.52313 7.58694 8.19039 7.58694C6.85765 7.58694 5.78979 6.51899 5.78979 5.217ZM8.19039 1.34706C6.04308 1.34706 4.28979 3.07279 4.28979 5.217C4.28979 7.36121 6.04308 9.08694 8.19039 9.08694C10.3377 9.08694 12.091 7.36121 12.091 5.217C12.091 3.07279 10.3377 1.34706 8.19039 1.34706ZM2.75 17.0133C2.75 14.0309 5.19346 11.6007 8.22311 11.6007C11.2528 11.6007 13.6962 14.0309 13.6962 17.0133C13.6962 17.4275 14.032 17.7633 14.4462 17.7633C14.8604 17.7633 15.1962 17.4275 15.1962 17.0133C15.1962 13.1887 12.0673 10.1007 8.22311 10.1007C4.3789 10.1007 1.25 13.1887 1.25 17.0133C1.25 17.4275 1.58579 17.7633 2 17.7633C2.41421 17.7633 2.75 17.4275 2.75 17.0133Z" fill="#676E7E"/>
</svg>
