<svg width="20" height="20" viewBox="0 0 20 20" fill="none" xmlns="http://www.w3.org/2000/svg">
<path fill-rule="evenodd" clip-rule="evenodd" d="M4.75 8.07805C4.75 6.05751 5.62376 4.75453 6.70319 3.93594C7.81437 3.09327 9.15275 2.76123 10 2.76123C10.8473 2.76123 12.1856 3.09327 13.2968 3.93594C14.3762 4.75453 15.25 6.05751 15.25 8.07805C15.25 9.65501 14.3671 11.4736 13.1414 13.1757C12.1214 14.5921 10.9256 15.8436 10 16.6861C9.07442 15.8436 7.87855 14.5921 6.85861 13.1757C5.63286 11.4736 4.75 9.65501 4.75 8.07805ZM10 1.26123C8.84725 1.26123 7.18563 1.68754 5.79681 2.74075C4.37624 3.81804 3.25 5.54847 3.25 8.07805C3.25 10.1412 4.36714 12.2828 5.64139 14.0523C6.93269 15.8454 8.47694 17.3812 9.51673 18.2574L10 18.6646L10.4833 18.2574C11.5231 17.3812 13.0673 15.8454 14.3586 14.0523C15.6329 12.2828 16.75 10.1412 16.75 8.07805C16.75 5.54847 15.6238 3.81804 14.2032 2.74075C12.8144 1.68754 11.1527 1.26123 10 1.26123ZM8.75 8.07805C8.75 7.36754 9.31745 6.80577 10 6.80577C10.6825 6.80577 11.25 7.36754 11.25 8.07805C11.25 8.78856 10.6825 9.35032 10 9.35032C9.31745 9.35032 8.75 8.78856 8.75 8.07805ZM10 5.30577C8.47341 5.30577 7.25 6.55482 7.25 8.07805C7.25 9.60128 8.47341 10.8503 10 10.8503C11.5266 10.8503 12.75 9.60128 12.75 8.07805C12.75 6.55482 11.5266 5.30577 10 5.30577Z" fill="#676E7E"/>
</svg>
