<svg width="16" height="18" viewBox="0 0 16 18" fill="none" xmlns="http://www.w3.org/2000/svg">
<path fill-rule="evenodd" clip-rule="evenodd" d="M8.75 1C8.75 0.585786 8.41421 0.25 8 0.25C7.58579 0.25 7.25 0.585786 7.25 1V1.88502C6.22194 1.98414 5.37586 2.28987 4.68953 2.75352C3.84568 3.3236 3.29629 4.09651 2.94015 4.89426C2.24969 6.44089 2.2499 8.17201 2.25 8.9721L2.25 9V9.01124V9.02245V9.03363V9.04479V9.05592V9.06702V9.0781V9.08915V9.10017V9.11117V9.12214V9.13309V9.14401V9.1549V9.16577V9.17662V9.18743V9.19823V9.20899V9.21973V9.23045V9.24114V9.25181V9.26245V9.27306V9.28365V9.29422V9.30476V9.31528V9.32577V9.33624V9.34668V9.3571V9.36749V9.37786V9.38821V9.39853V9.40883V9.4191V9.42935V9.43958V9.44979V9.45996V9.47012V9.48025V9.49036V9.50045V9.51051V9.52055V9.53057V9.54056V9.55054V9.56048V9.57041V9.58031V9.59019V9.60005V9.60989V9.6197V9.62949V9.63926V9.64901V9.65873V9.66844V9.67812V9.68778V9.69742V9.70703V9.71663V9.7262V9.73575V9.74529V9.7548V9.76428V9.77375V9.7832V9.79262V9.80203V9.81141V9.82078V9.83012V9.83944V9.84874V9.85803V9.86729V9.87653V9.88575V9.89495V9.90413V9.91329V9.92244V9.93156V9.94066V9.94974V9.95881V9.96785V9.97688V9.98588V9.99487V10.0038V10.0128V10.0217V10.0306V10.0395V10.0484V10.0572V10.0661V10.0749V10.0837V10.0925V10.1012V10.11V10.1187V10.1274V10.1361V10.1448V10.1534V10.1621V10.1707V10.1793V10.1879V10.1965V10.205V10.2135V10.2221V10.2306V10.239V10.2475V10.2559V10.2644V10.2728V10.2812V10.2896V10.2979V10.3063V10.3146V10.3229V10.3312V10.3395V10.3478V10.3561V10.3643V10.3725V10.3807V10.3889V10.3971V10.4052V10.4134V10.4215V10.4296V10.4377V10.4458V10.4539V10.4619V10.47V10.478V10.486V10.494V10.502V10.51V10.5179V10.5259V10.5338V10.5417V10.5496V10.5575V10.5653V10.5732V10.581V10.5889V10.5967V10.6045V10.6123V10.62V10.6278V10.6356V10.6433V10.651V10.6587V10.6664V10.6741V10.6818V10.6894V10.6971V10.7047V10.7123V10.7199V10.7275V10.7351V10.7427V10.7503V10.7578V10.7654V10.7729V10.7804V10.7879V10.7954V10.8029V10.8103V10.8178V10.8252V10.8327V10.8401V10.8475V10.8549V10.8623V10.8697V10.8771V10.8844V10.8918V10.8991V10.9064V10.9138V10.9211V10.9284V10.9357V10.9429V10.9502V10.9575V10.9647V10.972V10.9792V10.9864V10.9936V11.0008V11.008V11.0152V11.0224V11.0296V11.0367V11.0439V11.051V11.0581V11.0653V11.0724V11.0795V11.0866V11.0937V11.1008V11.1078V11.1149V11.122V11.129V11.1361V11.1431V11.1501V11.1571V11.1642V11.1712V11.1782V11.1851V11.1921V11.1991V11.2061V11.213V11.22V11.2269V11.2339V11.2408V11.2478V11.2547V11.2616V11.2685V11.2754V11.2823V11.2892V11.2961V11.303V11.3099V11.3167V11.3236V11.3304V11.3373V11.3441V11.351V11.3578V11.3647V11.3715V11.3783V11.3851V11.3919V11.3987V11.4055V11.4123V11.4191V11.4259V11.4327V11.4395V11.4463V11.453V11.4598V11.4666V11.4733V11.4801V11.4868V11.4936V11.5003V11.5071V11.5138V11.5206V11.5273V11.534V11.5407V11.5475V11.5542V11.5609V11.5676V11.5743V11.581V11.5877V11.5944V11.6012V11.6079V11.6145V11.6212V11.6279V11.6346V11.6413V11.648V11.6547V11.6614V11.6681V11.6747V11.6814V11.6881V11.6948V11.7014V11.7081V11.7148V11.7215V11.7281V11.7348V11.7415V11.7481V11.7548V11.7615V11.7681V11.7748V11.7815V11.7881V11.7948V11.8015V11.8081V11.8148V11.8215V11.8281V11.8348V11.8415V11.8482V11.8548V11.8615V11.8682V11.8748V11.8815V11.8882V11.8949V11.9015V11.9082V11.9149V11.9216V11.9282V11.9349V11.9416V11.9483V11.955V11.9617V11.9684V11.9751V11.9818V11.9885V11.9952V12.0019V12.0086V12.0153V12.022V12.0287V12.0354V12.0421V12.0488V12.0556V12.0623V12.069V12.0758V12.0825V12.0892V12.096V12.1027V12.1095V12.1162V12.123V12.1298V12.1365V12.1433V12.1501V12.1568V12.1636V12.1704V12.1772V12.184V12.1908V12.1976V12.2044V12.2112V12.218V12.2249V12.2317V12.2385V12.2454V12.25H1C0.585786 12.25 0.25 12.5858 0.25 13C0.25 13.4142 0.585786 13.75 1 13.75H3H15C15.4142 13.75 15.75 13.4142 15.75 13C15.75 12.5858 15.4142 12.25 15 12.25H13.75V11.22V9L13.75 8.9721C13.7501 8.17201 13.7503 6.44089 13.0599 4.89425C12.7037 4.09649 12.1543 3.32358 11.3105 2.7535C10.6241 2.28985 9.77806 1.98411 8.75 1.88499V1ZM8.01854 3.35H8C6.87434 3.35 6.08893 3.61836 5.52922 3.99648C4.96682 4.3764 4.57871 4.90349 4.30985 5.50574C3.75845 6.74088 3.75 8.18716 3.75 9V9.01124V9.02245V9.03363V9.04479V9.05592V9.06702V9.0781V9.08915V9.10017V9.11117V9.12214V9.13309V9.14401V9.1549V9.16577V9.17662V9.18743V9.19823V9.20899V9.21973V9.23045V9.24114V9.25181V9.26245V9.27306V9.28365V9.29422V9.30476V9.31528V9.32577V9.33624V9.34668V9.3571V9.36749V9.37786V9.38821V9.39853V9.40883V9.4191V9.42935V9.43958V9.44979V9.45996V9.47012V9.48025V9.49036V9.50045V9.51051V9.52055V9.53057V9.54056V9.55054V9.56048V9.57041V9.58031V9.59019V9.60005V9.60989V9.6197V9.62949V9.63926V9.64901V9.65873V9.66844V9.67812V9.68778V9.69742V9.70703V9.71663V9.7262V9.73575V9.74529V9.7548V9.76428V9.77375V9.7832V9.79262V9.80203V9.81141V9.82078V9.83012V9.83944V9.84874V9.85803V9.86729V9.87653V9.88575V9.89495V9.90413V9.91329V9.92244V9.93156V9.94066V9.94974V9.95881V9.96785V9.97688V9.98588V9.99487V10.0038V10.0128V10.0217V10.0306V10.0395V10.0484V10.0572V10.0661V10.0749V10.0837V10.0925V10.1012V10.11V10.1187V10.1274V10.1361V10.1448V10.1534V10.1621V10.1707V10.1793V10.1879V10.1965V10.205V10.2135V10.2221V10.2306V10.239V10.2475V10.2559V10.2644V10.2728V10.2812V10.2896V10.2979V10.3063V10.3146V10.3229V10.3312V10.3395V10.3478V10.3561V10.3643V10.3725V10.3807V10.3889V10.3971V10.4052V10.4134V10.4215V10.4296V10.4377V10.4458V10.4539V10.4619V10.47V10.478V10.486V10.494V10.502V10.51V10.5179V10.5259V10.5338V10.5417V10.5496V10.5575V10.5653V10.5732V10.581V10.5889V10.5967V10.6045V10.6123V10.62V10.6278V10.6356V10.6433V10.651V10.6587V10.6664V10.6741V10.6818V10.6894V10.6971V10.7047V10.7123V10.7199V10.7275V10.7351V10.7427V10.7503V10.7578V10.7654V10.7729V10.7804V10.7879V10.7954V10.8029V10.8103V10.8178V10.8252V10.8327V10.8401V10.8475V10.8549V10.8623V10.8697V10.8771V10.8844V10.8918V10.8991V10.9064V10.9138V10.9211V10.9284V10.9357V10.9429V10.9502V10.9575V10.9647V10.972V10.9792V10.9864V10.9936V11.0008V11.008V11.0152V11.0224V11.0296V11.0367V11.0439V11.051V11.0581V11.0653V11.0724V11.0795V11.0866V11.0937V11.1008V11.1078V11.1149V11.122V11.129V11.1361V11.1431V11.1501V11.1571V11.1642V11.1712V11.1782V11.1851V11.1921V11.1991V11.2061V11.213V11.22V11.2269V11.2339V11.2408V11.2478V11.2547V11.2616V11.2685V11.2754V11.2823V11.2892V11.2961V11.303V11.3099V11.3167V11.3236V11.3304V11.3373V11.3441V11.351V11.3578V11.3647V11.3715V11.3783V11.3851V11.3919V11.3987V11.4055V11.4123V11.4191V11.4259V11.4327V11.4395V11.4463V11.453V11.4598V11.4666V11.4733V11.4801V11.4868V11.4936V11.5003V11.5071V11.5138V11.5206V11.5273V11.534V11.5407V11.5475V11.5542V11.5609V11.5676V11.5743V11.581V11.5877V11.5944V11.6012V11.6079V11.6145V11.6212V11.6279V11.6346V11.6413V11.648V11.6547V11.6614V11.6681V11.6747V11.6814V11.6881V11.6948V11.7014V11.7081V11.7148V11.7215V11.7281V11.7348V11.7415V11.7481V11.7548V11.7615V11.7681V11.7748V11.7815V11.7881V11.7948V11.8015V11.8081V11.8148V11.8215V11.8281V11.8348V11.8415V11.8482V11.8548V11.8615V11.8682V11.8748V11.8815V11.8882V11.8949V11.9015V11.9082V11.9149V11.9216V11.9282V11.9349V11.9416V11.9483V11.955V11.9617V11.9684V11.9751V11.9818V11.9885V11.9952V12.0019V12.0086V12.0153V12.022V12.0287V12.0354V12.0421V12.0488V12.0556V12.0623V12.069V12.0758V12.0825V12.0892V12.096V12.1027V12.1095V12.1162V12.123V12.1298V12.1365V12.1433V12.1501V12.1568V12.1636V12.1704V12.1772V12.184V12.1908V12.1976V12.2044V12.2112V12.218V12.2249V12.2317V12.2385V12.2454V12.25H12.25V11.22V9C12.25 8.18716 12.2415 6.74087 11.6901 5.50572C11.4213 4.90347 11.0332 4.37638 10.4708 3.99645C9.91415 3.62042 9.13429 3.35293 8.01854 3.35ZM6.75 15C6.75 15.6904 7.30964 16.25 8 16.25C8.69036 16.25 9.25 15.6904 9.25 15H10.75C10.75 16.5188 9.51878 17.75 8 17.75C6.48122 17.75 5.25 16.5188 5.25 15H6.75Z" fill="#676E7E"/>
</svg>
