<svg width="20" height="20" viewBox="0 0 20 20" fill="none" xmlns="http://www.w3.org/2000/svg">
<path fill-rule="evenodd" clip-rule="evenodd" d="M0.999878 4.78052C0.999878 3.81402 1.78338 3.03052 2.74988 3.03052H17.2471C18.2136 3.03052 18.9971 3.81402 18.9971 4.78052V7.94556V15.2759C18.9971 16.2424 18.2136 17.0259 17.2471 17.0259H2.74988C1.78338 17.0259 0.999878 16.2424 0.999878 15.2759V7.94556V4.78052ZM17.4971 4.78052V7.19556H2.49988V4.78052C2.49988 4.64245 2.61181 4.53052 2.74988 4.53052H17.2471C17.3852 4.53052 17.4971 4.64245 17.4971 4.78052ZM17.4971 8.69556H2.49988V15.2759C2.49988 15.414 2.61181 15.5259 2.74988 15.5259H17.2471C17.3852 15.5259 17.4971 15.414 17.4971 15.2759V8.69556ZM4.84341 11.3608C4.42919 11.3608 4.09341 11.6966 4.09341 12.1108C4.09341 12.5251 4.42919 12.8608 4.84341 12.8608H9.9988C10.413 12.8608 10.7488 12.5251 10.7488 12.1108C10.7488 11.6966 10.413 11.3608 9.9988 11.3608H4.84341Z" fill="#3F72E9"/>
</svg>
