<svg width="20" height="20" viewBox="0 0 20 20" fill="none" xmlns="http://www.w3.org/2000/svg">
<path fill-rule="evenodd" clip-rule="evenodd" d="M14.518 1.5075C14.246 1.19511 13.7723 1.16238 13.4599 1.43438C13.1475 1.70639 13.1148 2.18013 13.3868 2.49252L15.3524 4.75001H4.99994C4.58573 4.75001 4.24994 5.0858 4.24994 5.50001C4.24994 5.91422 4.58573 6.25001 4.99994 6.25001H15.3524L13.3868 8.5075C13.1148 8.81989 13.1475 9.29363 13.4599 9.56564C13.7723 9.83764 14.246 9.80491 14.518 9.49252L17.5656 5.99252C17.8114 5.71019 17.8114 5.28983 17.5656 5.0075L14.518 1.5075ZM5.63372 18.5051C5.91265 18.8113 6.38701 18.8334 6.69323 18.5545C6.99944 18.2755 7.02155 17.8012 6.74262 17.495L4.69765 15.25H15.9999C16.4142 15.25 16.7499 14.9142 16.7499 14.5C16.7499 14.0858 16.4142 13.75 15.9999 13.75H4.69765L6.74262 11.5051C7.02155 11.1989 6.99944 10.7245 6.69323 10.4456C6.38701 10.1666 5.91265 10.1887 5.63372 10.495L2.44549 13.995C2.18476 14.2812 2.18476 14.7188 2.44549 15.0051L5.63372 18.5051Z" fill="#3F72E9"/>
</svg>
